# xmcd
#
# Track frame offsets:
#	151
#	17138
#	32253
#	46693
#	59184
#	73782
#	88592
#	109929
#	123016
#	135583
#
# Disc length: 2048 seconds
#
# Revision: 1
# Processed by: cddbd v1.5.1PL0 Copyright (c) Steve Scherf et al.
# Submitted via: EasyCDDAExtractor 7.0.6.1
#
DISCID=8107fe0a
DTITLE=Various Artist - Lupita D'alessio y Artistas Varios
DYEAR=1900
DGENRE=Ballad
TTITLE0=Lupita D'alessio - Mi corazón es un gitano
TTITLE1=Palito Ortega - Perdon por ser como soy
TTITLE2=Lupita D'alessio - A mi
TTITLE3=José José - Mi vida
TTITLE4=Lupita D'alessio - Agenda
TTITLE5=King Clave - Los hombres no deben llorar
TTITLE6=Lupita D'alessio - Quedate conmigo amor
TTITLE7=Luis "Vivi" Hernández - Sencillamente nunca
TTITLE8=Lupita D'alessio - Borrare tu nombre
TTITLE9=Diego Verdaguer - Volveré
EXTD=
EXTT0=
EXTT1=
EXTT2=
EXTT3=
EXTT4=
EXTT5=
EXTT6=
EXTT7=
EXTT8=
EXTT9=
PLAYORDER=
